<?xml version="1.0" standalone="no"?>
<!DOCTYPE svg PUBLIC "-//W3C//DTD SVG 20010904//EN"
 "http://www.w3.org/TR/2001/REC-SVG-20010904/DTD/svg10.dtd">
<svg version="1.0" xmlns="http://www.w3.org/2000/svg"
 width="60.000000pt" height="25.000000pt" viewBox="0 0 60.000000 25.000000"
 preserveAspectRatio="xMidYMid meet">
<metadata>
Created by potrace 1.15, written by Peter Selinger 2001-2017
</metadata>
<g transform="translate(0.000000,25.000000) scale(0.100000,-0.100000)"
fill="#000000" stroke="none">
<path d="M112 198 c-7 -7 -12 -18 -12 -26 0 -21 -41 -112 -51 -112 -5 0 -9 -4
-9 -10 0 -5 14 -10 30 -10 24 0 30 4 28 17 -2 14 4 18 27 18 23 0 29 -4 27
-17 -2 -15 5 -18 43 -18 25 0 45 3 45 6 0 3 -9 17 -20 31 -11 14 -20 31 -20
38 0 15 -57 95 -68 95 -4 0 -13 -5 -20 -12z m28 -79 c0 -5 -7 -9 -15 -9 -15 0
-20 12 -9 23 8 8 24 -1 24 -14z"/>
<path d="M293 195 c-85 -37 -61 -155 32 -155 42 0 75 15 75 34 0 11 -10 13
-39 9 -33 -5 -41 -2 -51 16 -29 54 12 92 55 51 26 -24 45 -20 45 10 0 19 -14
33 -36 36 -6 1 -20 4 -30 7 -11 4 -33 0 -51 -8z"/>
<path d="M463 200 c-27 -11 -45 -43 -37 -65 4 -9 24 -25 46 -36 29 -15 37 -24
29 -32 -12 -12 -61 6 -61 23 0 5 -4 10 -10 10 -14 0 -13 -33 2 -48 20 -20 95
-15 118 8 11 11 20 26 20 34 0 20 -27 45 -56 52 -13 3 -24 12 -24 20 0 19 19
18 42 -3 23 -21 45 -5 26 19 -16 19 -66 29 -95 18z"/>
</g>
</svg>
